<svg width="40" height="40" viewBox="0 0 40 40" fill="none" xmlns="http://www.w3.org/2000/svg">
<g clip-path="url(#clip0_105_2)">
<path d="M39.3268 26.8274C38.8786 26.3788 38.3333 26.1543 37.6926 26.1543H26.5384L23.2692 29.4234C22.3397 30.3207 21.25 30.7695 20 30.7695C18.7503 30.7695 17.6603 30.3213 16.7308 29.4234L13.4856 26.1543H2.30766C1.66676 26.1543 1.12192 26.379 0.673068 26.8274C0.2243 27.276 0 27.8209 0 28.4622V36.1543C0 36.7953 0.2243 37.3402 0.673068 37.7889C1.12184 38.2375 1.66667 38.4616 2.30766 38.4616H37.6927C38.3334 38.4616 38.8787 38.2375 39.3269 37.7889C39.7759 37.3402 40 36.7953 40 36.1543V28.4622C40 27.8209 39.7759 27.276 39.3268 26.8274ZM30.3129 34.9283C30.008 35.2328 29.6473 35.385 29.2307 35.385C28.814 35.385 28.4538 35.2328 28.149 34.9283C27.8447 34.6237 27.6925 34.2633 27.6925 33.8468C27.6925 33.4302 27.8447 33.0692 28.149 32.7652C28.4538 32.4604 28.814 32.3079 29.2307 32.3079C29.6473 32.3079 30.008 32.4604 30.3129 32.7652C30.6171 33.0691 30.7693 33.4302 30.7693 33.8468C30.7693 34.2632 30.6171 34.6237 30.3129 34.9283ZM36.4663 34.9283C36.1621 35.2328 35.8014 35.385 35.3846 35.385C34.968 35.385 34.6075 35.2328 34.3029 34.9283C33.9987 34.6237 33.8466 34.2633 33.8466 33.8468C33.8466 33.4302 33.9987 33.0692 34.3029 32.7652C34.6075 32.4604 34.9679 32.3079 35.3846 32.3079C35.8013 32.3079 36.162 32.4604 36.4663 32.7652C36.7709 33.0691 36.9233 33.4302 36.9233 33.8468C36.9233 34.2632 36.7711 34.6237 36.4663 34.9283Z" fill="white"/>
<path d="M18.9183 27.2359C19.207 27.5401 19.5675 27.6924 20 27.6924C20.4329 27.6924 20.793 27.5401 21.0817 27.2359L31.851 16.4665C32.3477 16.0018 32.4601 15.4408 32.1876 14.7837C31.9156 14.1589 31.4427 13.8465 30.7693 13.8461H24.6153V3.07686C24.6153 2.66025 24.4628 2.29964 24.1589 1.99518C23.8541 1.69064 23.4937 1.53833 23.0772 1.53833H16.9228C16.5063 1.53833 16.1457 1.69064 15.8411 1.99518C15.5367 2.29964 15.3844 2.66017 15.3844 3.07686V13.8462H9.23057C8.55716 13.8462 8.08465 14.159 7.81219 14.7838C7.5399 15.4406 7.65196 16.0019 8.14889 16.4666L18.9183 27.2359Z" fill="white"/>
</g>
<defs>
<clipPath id="clip0_105_2">
<rect width="40" height="40" fill="white"/>
</clipPath>
</defs>
</svg>
