<svg width="20" height="20" viewBox="0 0 20 20" fill="none" xmlns="http://www.w3.org/2000/svg">
<g clip-path="url(#clip0_865_21)">
<path d="M19.2831 8.66873C18.9447 6.20478 17.6415 3.97615 15.66 2.4731C13.6785 0.970059 11.1811 0.315722 8.71713 0.654038C6.25318 0.992355 4.02455 2.29561 2.52151 4.27711C1.01846 6.25861 0.364122 8.75603 0.702439 11.22C0.980089 13.2591 1.91666 15.1516 3.36948 16.6092C4.82229 18.0667 6.71172 19.0094 8.74994 19.2937C9.16774 19.348 9.58863 19.3751 10.0099 19.375C11.7097 19.3781 13.3776 18.9143 14.8318 18.0344C14.9064 17.9943 14.972 17.9394 15.0247 17.8732C15.0774 17.807 15.1161 17.7308 15.1385 17.6491C15.1609 17.5675 15.1664 17.4822 15.1548 17.3983C15.1433 17.3145 15.1147 17.2339 15.0711 17.1614C15.0274 17.0889 14.9694 17.026 14.9007 16.9766C14.832 16.9271 14.754 16.8922 14.6713 16.8738C14.5887 16.8555 14.5032 16.8541 14.42 16.8697C14.3369 16.8854 14.2577 16.9178 14.1874 16.965C12.5399 17.9553 10.5947 18.3299 8.69728 18.022C6.79981 17.7142 5.07281 16.7439 3.8229 15.2835C2.57299 13.823 1.88104 11.9669 1.8699 10.0447C1.85876 8.12242 2.52915 6.25842 3.76205 4.78359C4.99495 3.30876 6.71059 2.31854 8.60436 1.98873C10.4981 1.65892 12.4475 2.01086 14.1064 2.98207C15.7653 3.95328 17.0264 5.48092 17.6657 7.29376C18.305 9.1066 18.2813 11.0874 17.5987 12.8844C17.4872 13.1779 17.2765 13.423 17.003 13.5773C16.7296 13.7316 16.4107 13.7852 16.1019 13.7288C15.793 13.6724 15.5137 13.5096 15.3124 13.2687C15.1111 13.0278 15.0005 12.7239 14.9999 12.41V5.62498C14.9999 5.45922 14.9341 5.30024 14.8169 5.18303C14.6997 5.06582 14.5407 4.99998 14.3749 4.99998C14.2092 4.99998 14.0502 5.06582 13.933 5.18303C13.8158 5.30024 13.7499 5.45922 13.7499 5.62498V6.70373C13.0736 5.93406 12.1771 5.39076 11.1818 5.14737C10.1865 4.90398 9.14046 4.97223 8.18523 5.34291C7.23001 5.71359 6.41173 6.36878 5.84113 7.21982C5.27053 8.07086 4.97517 9.07666 4.99501 10.1011C5.01485 11.1255 5.34895 12.1191 5.95208 12.9474C6.5552 13.7757 7.39825 14.3987 8.36711 14.7321C9.33597 15.0656 10.3839 15.0932 11.369 14.8115C12.3541 14.5297 13.2289 13.9521 13.8749 13.1569C14.03 13.6747 14.3435 14.131 14.7714 14.4613C15.1994 14.7917 15.7201 14.9795 16.2604 14.9985C16.8006 15.0174 17.3332 14.8664 17.7832 14.5667C18.2332 14.2671 18.5778 13.8339 18.7687 13.3281C19.3267 11.8423 19.5035 10.2404 19.2831 8.66873ZM9.99994 13.75C9.25826 13.75 8.53323 13.53 7.91655 13.118C7.29987 12.7059 6.81922 12.1203 6.53539 11.435C6.25156 10.7498 6.1773 9.99582 6.32199 9.26839C6.46669 8.54096 6.82384 7.87277 7.34829 7.34833C7.87274 6.82388 8.54092 6.46673 9.26835 6.32203C9.99578 6.17734 10.7498 6.2516 11.435 6.53543C12.1202 6.81926 12.7059 7.2999 13.1179 7.91659C13.53 8.53327 13.7499 9.2583 13.7499 9.99998C13.7489 10.9942 13.3535 11.9475 12.6505 12.6505C11.9474 13.3536 10.9942 13.749 9.99994 13.75Z" fill="black"/>
</g>
<defs>
<clipPath id="clip0_865_21">
<rect width="20" height="20" fill="white"/>
</clipPath>
</defs>
</svg>
