<svg width="20" height="20" viewBox="0 0 20 20" fill="none" xmlns="http://www.w3.org/2000/svg">
<g clip-path="url(#clip0_451_86)">
<path d="M19.6094 0H7.10978C6.89403 0 6.71915 0.174883 6.71915 0.390625V4.53125C6.71915 4.74699 6.89403 4.92188 7.10978 4.92188C7.32552 4.92188 7.5004 4.74699 7.5004 4.53125V0.78125H19.2188V6.71875C19.2188 6.93449 19.3936 7.10938 19.6094 7.10938C19.8251 7.10938 20 6.93449 20 6.71875V0.390625C20 0.174883 19.8251 0 19.6094 0ZM19.8856 8.14492C19.8129 8.07227 19.7121 8.03047 19.6094 8.03047C19.5067 8.03047 19.4059 8.07227 19.3332 8.14492C19.2606 8.21758 19.2188 8.31836 19.2188 8.42109C19.2188 8.52383 19.2606 8.62461 19.3332 8.69727C19.4059 8.76992 19.5067 8.81172 19.6094 8.81172C19.7121 8.81172 19.8129 8.76992 19.8856 8.69727C19.9582 8.62461 20 8.52422 20 8.42109C20 8.31836 19.9582 8.21758 19.8856 8.14492ZM19.6094 9.60938C19.3936 9.60938 19.2188 9.78426 19.2188 10V19.2188H6.42583L9.9736 14.6735C9.98056 14.6646 9.98704 14.6555 9.99314 14.6461C10.8042 13.6476 11.2504 12.3907 11.2504 11.1014C11.2504 7.9998 8.72704 5.47645 5.6254 5.47645C2.52376 5.47645 0.000400391 7.9998 0.000400391 11.1014C0.000400391 12.3093 0.393096 13.491 1.11075 14.4566C0.453252 14.7842 0.000244141 15.4631 0.000244141 16.2463C0.000244141 16.8549 0.272549 17.4228 0.747354 17.8045C0.816724 17.8603 0.903068 17.8907 0.99208 17.8907L3.78899 17.8906L4.82521 19.2188H1.93399C1.71825 19.2188 1.54337 19.3936 1.54337 19.6094C1.54337 19.8251 1.71825 20 1.93399 20H19.6094C19.8251 20 20 19.8251 20 19.6094V10C20 9.78426 19.8251 9.60938 19.6094 9.60938ZM1.14036 17.1094C0.910869 16.8816 0.781494 16.5736 0.781494 16.2463C0.781494 15.5751 1.32751 15.0291 1.99864 15.0291C2.53544 15.0291 3.01571 15.3886 3.16649 15.9034C3.18606 15.9703 3.22316 16.0307 3.27394 16.0784C3.32471 16.1261 3.38732 16.1593 3.45527 16.1747C3.52323 16.19 3.59405 16.1869 3.6604 16.1657C3.72675 16.1445 3.78621 16.1059 3.83263 16.0539C3.91201 15.9651 4.00923 15.894 4.11794 15.8453C4.22665 15.7966 4.3444 15.7714 4.46353 15.7712C4.93005 15.7712 5.30958 16.1508 5.30958 16.6173C5.30958 16.7966 5.25446 16.9669 5.15212 17.1093L1.14036 17.1094ZM4.77993 17.8906L5.32978 17.8906C5.43212 17.8906 5.53036 17.8504 5.60341 17.7787C5.91771 17.4702 6.09083 17.0578 6.09083 16.6174C6.09083 15.7201 5.36083 14.99 4.46353 14.99C4.19387 14.9901 3.92846 15.0573 3.69118 15.1854C3.33138 14.6152 2.69388 14.2479 1.99864 14.2479C1.97864 14.2479 1.95888 14.2488 1.93903 14.2494L1.8831 14.1777C1.87855 14.1713 1.87381 14.1652 1.86888 14.1591C1.16778 13.2989 0.78165 12.213 0.78165 11.1015C0.78165 8.43062 2.95454 6.25773 5.6254 6.25773C8.29626 6.25773 10.4692 8.43062 10.4692 11.1015C10.4692 12.225 10.0758 13.3199 9.36157 14.1844C9.35013 14.1982 9.33968 14.2128 9.33028 14.2281L5.62552 18.9745L4.77993 17.8906ZM0.667197 19.3332C0.594541 19.2605 0.49376 19.2188 0.391025 19.2188C0.288291 19.2188 0.18751 19.2605 0.114854 19.3332C0.0421973 19.4059 0.000400391 19.5066 0.000400391 19.6094C0.000400391 19.7121 0.0421973 19.8129 0.114854 19.8855C0.18751 19.9582 0.288291 20 0.391025 20C0.49376 20 0.594541 19.9582 0.667197 19.8855C0.739854 19.8129 0.78165 19.7121 0.78165 19.6094C0.78165 19.5066 0.739854 19.4059 0.667197 19.3332Z" fill="black"/>
<path d="M17.7347 1.95312H15.8597C15.644 1.95312 15.4691 2.12801 15.4691 2.34375V4.53125C15.4691 4.74699 15.644 4.92188 15.8597 4.92188H17.7347C17.9504 4.92188 18.1253 4.74699 18.1253 4.53125V2.34375C18.1253 2.12801 17.9504 1.95312 17.7347 1.95312ZM17.3441 4.14062H16.2503V2.73438H17.3441V4.14062ZM14.2972 1.95312H12.4222C12.2065 1.95312 12.0316 2.12801 12.0316 2.34375V4.53125C12.0316 4.74699 12.2065 4.92188 12.4222 4.92188H14.2972C14.5129 4.92188 14.6878 4.74699 14.6878 4.53125V2.34375C14.6878 2.12801 14.5129 1.95312 14.2972 1.95312ZM13.9066 4.14062H12.8128V2.73438H13.9066V4.14062ZM10.8597 1.95312H8.9847C8.76896 1.95312 8.59408 2.12801 8.59408 2.34375V4.53125C8.59408 4.74699 8.76896 4.92188 8.9847 4.92188H10.8597C11.0754 4.92188 11.2503 4.74699 11.2503 4.53125V2.34375C11.2503 2.12801 11.0754 1.95312 10.8597 1.95312ZM10.4691 4.14062H9.37533V2.73438H10.4691V4.14062ZM17.7347 6.32812H15.8597C15.644 6.32812 15.4691 6.50301 15.4691 6.71875V8.90625C15.4691 9.12199 15.644 9.29688 15.8597 9.29688H17.7347C17.9504 9.29688 18.1253 9.12199 18.1253 8.90625V6.71875C18.1253 6.50301 17.9504 6.32812 17.7347 6.32812ZM17.3441 8.51562H16.2503V7.10938H17.3441V8.51562ZM14.2972 6.32812H12.4222C12.2065 6.32812 12.0316 6.50301 12.0316 6.71875V8.90625C12.0316 9.12199 12.2065 9.29688 12.4222 9.29688H14.2972C14.5129 9.29688 14.6878 9.12199 14.6878 8.90625V6.71875C14.6878 6.50301 14.5129 6.32812 14.2972 6.32812ZM13.9066 8.51562H12.8128V7.10938H13.9066V8.51562ZM10.8601 6.32812H10.8597C10.644 6.32812 10.4693 6.50301 10.4693 6.71875C10.4693 6.93449 10.6444 7.10938 10.8601 7.10938C11.0758 7.10938 11.2507 6.93449 11.2507 6.71875C11.2507 6.50301 11.0758 6.32812 10.8601 6.32812ZM17.7347 10.7031H15.8597C15.644 10.7031 15.4691 10.878 15.4691 11.0938V13.2812C15.4691 13.497 15.644 13.6719 15.8597 13.6719H17.7347C17.9504 13.6719 18.1253 13.497 18.1253 13.2812V11.0938C18.1253 10.878 17.9504 10.7031 17.7347 10.7031ZM17.3441 12.8906H16.2503V11.4844H17.3441V12.8906ZM14.2972 10.7031H12.4222C12.2065 10.7031 12.0316 10.878 12.0316 11.0938V13.2812C12.0316 13.497 12.2065 13.6719 12.4222 13.6719H14.2972C14.5129 13.6719 14.6878 13.497 14.6878 13.2812V11.0938C14.6878 10.878 14.5129 10.7031 14.2972 10.7031ZM13.9066 12.8906H12.8128V11.4844H13.9066V12.8906ZM17.7347 15.0781H15.8597C15.644 15.0781 15.4691 15.253 15.4691 15.4688V17.6562C15.4691 17.872 15.644 18.0469 15.8597 18.0469H17.7347C17.9504 18.0469 18.1253 17.872 18.1253 17.6562V15.4688C18.1253 15.253 17.9504 15.0781 17.7347 15.0781ZM17.3441 17.2656H16.2503V15.8594H17.3441V17.2656ZM14.2972 15.0781H12.4222C12.2065 15.0781 12.0316 15.253 12.0316 15.4688V17.6562C12.0316 17.872 12.2065 18.0469 12.4222 18.0469H14.2972C14.5129 18.0469 14.6878 17.872 14.6878 17.6562V15.4688C14.6878 15.253 14.5129 15.0781 14.2972 15.0781ZM13.9066 17.2656H12.8128V15.8594H13.9066V17.2656ZM10.8597 15.6786C10.644 15.6786 10.4691 15.8535 10.4691 16.0693V17.2656H9.61376C9.39802 17.2656 9.22314 17.4405 9.22314 17.6562C9.22314 17.872 9.39802 18.0469 9.61376 18.0469H10.8597C11.0754 18.0469 11.2503 17.872 11.2503 17.6562V16.0693C11.2503 15.8535 11.0754 15.6786 10.8597 15.6786ZM5.62533 8.03047C3.91728 8.03047 2.52771 9.42004 2.52771 11.1281C2.52771 12.8361 3.91732 14.2257 5.62533 14.2257C7.33333 14.2257 8.72294 12.8361 8.72294 11.1281C8.72294 9.42004 7.33337 8.03047 5.62533 8.03047ZM5.62533 13.4445C4.34806 13.4445 3.30896 12.4054 3.30896 11.1281C3.30896 9.8509 4.3481 8.81176 5.62533 8.81176C6.90255 8.81176 7.94169 9.8509 7.94169 11.1281C7.94169 12.4054 6.90259 13.4445 5.62533 13.4445Z" fill="black"/>
</g>
<defs>
<clipPath id="clip0_451_86">
<rect width="20" height="20" fill="white"/>
</clipPath>
</defs>
</svg>
