<svg width="20" height="20" viewBox="0 0 20 20" fill="none" xmlns="http://www.w3.org/2000/svg">
<g clip-path="url(#clip0_451_53)">
<path d="M3.22714 16.3342C3.22714 16.6583 2.96446 16.921 2.64037 16.921C2.31629 16.921 2.0536 16.6583 2.0536 16.3342C2.0536 15.5427 2.07511 14.7845 2.11824 14.0686C1.84444 14.1464 1.56766 14.2133 1.28856 14.2692C0.970796 14.3328 0.661694 14.1266 0.598118 13.8089C0.534582 13.4911 0.74065 13.182 1.05841 13.1185C1.45212 13.0397 1.8405 12.9362 2.22124 12.8088C2.3476 11.6079 2.54556 10.5651 2.81588 9.73494C3.46215 7.74998 4.61743 6.8386 6.12992 7.59483C7.64095 8.35035 7.68354 9.92693 6.50762 11.3851C5.77757 12.2903 4.65364 13.0887 3.32361 13.6467C3.2596 14.477 3.22714 15.3794 3.22714 16.3342ZM5.59415 10.6484C6.35351 9.70679 6.33465 9.00916 5.60515 8.64443C4.90277 8.29326 4.38693 8.70017 3.93177 10.0982C3.73618 10.6989 3.58033 11.4391 3.46543 12.289C4.35577 11.8361 5.09678 11.2651 5.59415 10.6484ZM11.7854 8.11826L17.0662 2.83748C17.5245 2.37921 18.2676 2.37921 18.7258 2.83748L19.6563 3.76795C20.1146 4.22622 20.1146 4.96925 19.6563 5.42756L14.3755 10.7083C14.1554 10.9284 13.8569 11.052 13.5457 11.052H12.0284C11.7044 11.052 11.4417 10.7894 11.4417 10.4653V8.94803C11.4417 8.6368 11.5654 8.33834 11.7854 8.11826ZM13.5457 9.87854L17.0662 6.35803L16.1357 5.42756L12.6152 8.94807V9.87854H13.5457ZM18.8265 4.59776L17.896 3.66729L16.9656 4.59776L17.896 5.52822L18.8265 4.59776ZM6.60251 14.3736C6.38913 14.6174 6.01843 14.6421 5.77456 14.4288C5.5307 14.2154 5.50595 13.8447 5.71937 13.6008L7.34225 11.7461C7.66234 11.3803 8.21836 11.3432 8.58419 11.6633C8.74663 11.8054 8.85117 12.0023 8.87795 12.2165L8.93615 12.6821L9.30195 12.296C9.63628 11.9432 10.1933 11.9281 10.5462 12.2625C10.589 12.303 10.6276 12.3477 10.6614 12.396L11.0957 13.0152L13.0414 12.4614C13.353 12.3727 13.6776 12.5534 13.7663 12.8651C13.8551 13.1767 13.6743 13.5013 13.3626 13.5901L11.2163 14.201C11.0405 14.2511 10.8534 14.2451 10.6811 14.184C10.5087 14.1229 10.3597 14.0096 10.2548 13.8599L9.90683 13.3638L9.36094 13.94C9.22073 14.088 9.03348 14.1827 8.83118 14.208C8.34887 14.2683 7.90898 13.9262 7.84868 13.4438L7.7946 13.0111L6.60251 14.3736ZM17.0159 10.4653C17.0159 10.1412 17.2786 9.8785 17.6027 9.8785C17.9267 9.8785 18.1894 10.1412 18.1894 10.4653V15.7461C18.1894 16.7182 17.4013 17.5063 16.4292 17.5063H4.98742C4.66337 17.5063 4.40065 17.2436 4.40065 16.9196C4.40065 16.5955 4.66337 16.3328 4.98742 16.3328H16.4291C16.7532 16.3328 17.0159 16.0701 17.0159 15.746V10.4653ZM12.6152 4.01098C12.9393 4.01098 13.202 4.27367 13.202 4.59776C13.202 4.92184 12.9393 5.18453 12.6152 5.18453H1.76027C1.43623 5.18453 1.1735 5.44721 1.1735 5.7713V10.4653C1.1735 10.7894 0.910818 11.0521 0.586732 11.0521C0.262645 11.0521 0 10.7894 0 10.4653V5.77126C0 4.79908 0.788094 4.01098 1.76027 4.01098H12.6152Z" fill="black"/>
</g>
<defs>
<clipPath id="clip0_451_53">
<rect width="20" height="20" fill="white"/>
</clipPath>
</defs>
</svg>
