<svg width="20" height="20" viewBox="0 0 20 20" fill="none" xmlns="http://www.w3.org/2000/svg">
<path d="M14.2115 11.5391C14.1125 11.4834 14.0003 11.4202 13.865 11.3388C13.7896 11.2933 13.6947 11.231 13.5941 11.165C13.078 10.8262 12.687 10.5865 12.3541 10.5865C12.2761 10.5865 12.2024 10.5997 12.1352 10.6256C11.8435 10.7379 11.604 11.0379 11.3724 11.3281C11.2875 11.4344 11.1661 11.5865 11.0923 11.6545C10.7999 11.6014 10.1832 11.2193 9.51762 10.5538C8.85129 9.88744 8.46914 9.26998 8.41668 8.97826C8.48461 8.90427 8.63797 8.78189 8.74492 8.69646C9.03395 8.46572 9.33281 8.22712 9.44574 7.93638C9.58981 7.56283 9.32578 7.11607 8.90645 6.47724C8.84047 6.37669 8.77813 6.28173 8.73289 6.20685C8.65121 6.07111 8.58809 5.9588 8.53238 5.85982C8.30375 5.45349 8.1527 5.18494 7.58508 5.18494C7.21668 5.18494 6.69582 5.53306 6.34301 5.8783C5.83027 6.38013 5.54785 6.95951 5.54785 7.51083C5.54883 9.00826 6.38453 10.7245 7.8407 12.2212C7.8432 12.2237 7.8457 12.2244 7.84828 12.2269C9.345 13.6831 11.0622 14.516 12.5596 14.516H12.5602C13.1107 14.516 13.6903 14.2368 14.1921 13.7243C14.5376 13.3715 14.8862 12.8545 14.8862 12.4863C14.8863 11.9188 14.6179 11.7677 14.2115 11.5391ZM12.5597 13.7423C11.2843 13.7414 9.72836 12.9684 8.39695 11.6745C7.10293 10.343 6.32996 8.78697 6.32914 7.51162C6.32914 6.74017 7.33023 6.00669 7.59203 5.9665C7.64551 5.96673 7.67356 5.9699 7.68691 5.97216C7.72152 6.01201 7.79031 6.13427 7.85156 6.24314C7.90699 6.34166 7.97602 6.46431 8.06391 6.61037C8.11703 6.69837 8.18328 6.79927 8.2534 6.90607C8.38609 7.10826 8.65285 7.51466 8.69781 7.68814C8.62262 7.79458 8.3893 7.98083 8.25758 8.08599C7.92043 8.35517 7.62926 8.58759 7.62926 8.91607C7.63008 9.70951 8.65207 10.7931 8.96527 11.1063C9.27848 11.4195 10.3621 12.4415 11.1572 12.4423C11.4836 12.4412 11.715 12.1513 11.983 11.8155C12.0887 11.6831 12.2761 11.4484 12.383 11.3736C12.5563 11.4183 12.9632 11.6853 13.1655 11.8182C13.2723 11.8883 13.3732 11.9545 13.4618 12.0079C13.6073 12.0955 13.7299 12.1645 13.8285 12.22C13.9373 12.2812 14.0596 12.3501 14.0995 12.3847C14.1017 12.398 14.1048 12.426 14.1051 12.4795C14.0646 12.741 13.3309 13.7414 12.5597 13.7423Z" fill="black"/>
<path d="M17.9838 10.0374C17.9563 7.9264 17.109 5.93163 15.5979 4.4205C14.0589 2.88151 12.0275 2.03394 9.8777 2.03394C7.8025 2.03394 5.86118 2.83245 4.41125 4.28233C3.12461 5.56897 2.33524 7.28499 2.1884 9.11433C2.04914 10.85 2.49098 12.6064 3.43446 14.0832L2.1461 17.5657C2.12424 17.6247 2.117 17.6882 2.12497 17.7507C2.13295 17.8131 2.15591 17.8728 2.1919 17.9244C2.2279 17.9761 2.27585 18.0183 2.33168 18.0475C2.38751 18.0766 2.44956 18.0918 2.51254 18.0918C2.56395 18.0918 2.61582 18.0769 2.665 18.056L6.02043 16.6282C7.30137 17.4254 8.76606 17.8363 10.27 17.8363H10.2702C12.345 17.8363 14.2863 17.0473 15.7361 15.5976C17.2129 14.1207 18.0112 12.1521 17.9838 10.0374ZM15.1836 15.0547C13.8813 16.3569 12.1363 17.0741 10.27 17.0741C8.84918 17.074 7.46684 16.6582 6.27239 15.8714C6.21864 15.836 6.15698 15.8144 6.09288 15.8086C6.02879 15.8027 5.96425 15.8129 5.905 15.838L3.19266 16.9884L4.23563 14.1692C4.25714 14.111 4.26449 14.0486 4.25709 13.987C4.24968 13.9255 4.22773 13.8666 4.19305 13.8151C2.27602 10.9751 2.60012 7.19831 4.96368 4.83479C6.26602 3.53245 8.01118 2.81519 9.8777 2.81519C11.8188 2.81519 13.654 3.58147 15.0454 4.97292C16.4117 6.33917 17.1778 8.14136 17.2025 10.0475C17.2273 11.9498 16.5102 13.728 15.1836 15.0547Z" fill="black"/>
</svg>
