<svg width="24" height="24" viewBox="0 0 24 24" fill="none" xmlns="http://www.w3.org/2000/svg">
<g clip-path="url(#clip0_451_202)">
<path d="M10.0005 24C11.8116 24 13.3266 22.7089 13.6745 21H6.32648C6.67456 22.7089 8.18958 24 10.0005 24Z" fill="#FFCD29"/>
<path d="M17.0125 11.999C17.0085 11.999 17.0045 11.9999 17.0004 11.9999C13.1415 11.9999 10.0005 8.85986 10.0005 5C10.0005 3.9389 10.2446 2.93585 10.6696 2.03387C10.4495 2.013 10.2265 2 10.0005 2C6.13459 2 3.00056 5.13385 3.00056 8.99994V11.7879C3.00056 13.7669 2.13356 15.6349 0.6125 16.9209C0.105481 17.3539 -0.119556 18.0439 0.0624513 18.717C0.274487 19.4999 1.04847 20 1.86055 20H18.1355C18.9875 20 19.7906 19.4479 19.9635 18.613C20.0975 17.967 19.8675 17.3219 19.3665 16.9009C17.9125 15.682 17.0715 13.8909 17.0125 11.999Z" fill="#FFCD29"/>
<path d="M22.0005 5.00006C22.0005 7.76147 19.762 9.99994 17.0004 9.99994C14.239 9.99994 12.0005 7.76147 12.0005 5.00006C12.0005 2.23865 14.239 0 17.0004 0C19.762 0 22.0005 2.23865 22.0005 5.00006Z" fill="url(#paint0_linear_451_202)"/>
</g>
<defs>
<linearGradient id="paint0_linear_451_202" x1="7.99982" y1="2.02643e-07" x2="26.9998" y2="10" gradientUnits="userSpaceOnUse">
<stop stop-color="#FFCD29"/>
<stop offset="0.682292" stop-color="#ED2E36"/>
</linearGradient>
<clipPath id="clip0_451_202">
<rect width="24" height="24" fill="white"/>
</clipPath>
</defs>
</svg>
