<svg width="20" height="20" viewBox="0 0 20 20" fill="none" xmlns="http://www.w3.org/2000/svg">
<path d="M16.7784 6.77812C16.7971 11.8359 11.1143 18.5652 10.1416 19.9266C10.1254 19.9491 10.104 19.9674 10.0793 19.98C10.0546 19.9927 10.0272 19.9993 9.99946 19.9993C9.9717 19.9993 9.94433 19.9927 9.91961 19.98C9.89489 19.9674 9.87353 19.9491 9.85727 19.9266C8.87954 18.5816 3.20336 11.3672 3.22172 6.77812C3.23696 3.03477 6.25649 0 10.0002 0C13.744 0 16.7631 2.65625 16.7784 6.77812Z" fill="black"/>
<path d="M10.0002 12.5391C13.1931 12.5391 15.7815 9.95071 15.7815 6.75781C15.7815 3.56492 13.1931 0.976562 10.0002 0.976562C6.80735 0.976562 4.21899 3.56492 4.21899 6.75781C4.21899 9.95071 6.80735 12.5391 10.0002 12.5391Z" fill="white"/>
<path d="M9.80879 4.02344V4.74219L8.49512 9.49219H7.63574L9.00293 4.82031H7.29199V4.02344H9.80879ZM10.051 8.25V5.26563C10.051 4.47656 10.5818 3.94531 11.3791 3.94531C12.1764 3.94531 12.7072 4.47656 12.7072 5.26563V8.25C12.7072 9.03906 12.176 9.57031 11.3791 9.57031C10.5822 9.57031 10.051 9.03906 10.051 8.25ZM11.8787 8.25V5.26563C11.8787 4.92188 11.6834 4.72656 11.3787 4.72656C11.074 4.72656 10.8779 4.92188 10.8779 5.26563V8.25C10.8779 8.59375 11.0732 8.78906 11.3779 8.78906C11.6826 8.78906 11.8787 8.59375 11.8787 8.25Z" fill="black"/>
</svg>
