<svg width="20" height="20" viewBox="0 0 20 20" fill="none" xmlns="http://www.w3.org/2000/svg">
<path d="M10.0011 1.25193C8.34444 1.25506 6.7565 1.91456 5.58505 3.08601C4.4136 4.25746 3.7541 5.8454 3.75098 7.50208C3.75098 9.95868 5.23202 12.6515 6.66582 14.801C8.09962 16.9505 9.53579 18.5426 9.53579 18.5426C9.59447 18.6074 9.66609 18.6593 9.74604 18.6948C9.82599 18.7302 9.91248 18.7486 9.99994 18.7486C10.0874 18.7486 10.1739 18.7302 10.2538 18.6948C10.3338 18.6593 10.4054 18.6074 10.4641 18.5426C10.4641 18.5426 11.9003 16.9505 13.3341 14.801C14.7679 12.6515 16.2489 9.95868 16.2489 7.50208C16.247 5.84521 15.5883 4.25666 14.4172 3.08463C13.246 1.9126 11.658 1.25506 10.0011 1.25193ZM10.0011 2.49913C12.7719 2.49913 14.997 4.73369 14.997 7.50208C14.997 9.42248 13.6742 12.0397 12.2947 14.1089C11.1467 15.8285 10.3554 16.6978 10.0035 17.1017C9.64917 16.6978 8.8555 15.8285 7.70751 14.1089C6.3304 12.0397 5.00053 9.42248 5.00053 7.50208C5.00053 4.73369 7.23273 2.49913 10.0011 2.49913ZM10.0011 5.00297C8.62874 5.00297 7.50201 6.1297 7.50201 7.50208C7.50201 8.87447 8.62874 10.0012 10.0011 10.0012C11.3759 10.0012 12.5026 8.87447 12.5026 7.50208C12.5026 6.1297 11.3759 5.00297 10.0011 5.00297ZM10.0011 6.25016C10.7003 6.25016 11.253 6.80526 11.253 7.50208C11.253 8.19891 10.7003 8.754 10.0011 8.754C9.83648 8.75526 9.67323 8.72373 9.5209 8.66123C9.36857 8.59873 9.23022 8.50653 9.1139 8.38999C8.99759 8.27346 8.90564 8.13492 8.84343 7.98248C8.78122 7.83003 8.74999 7.66673 8.75157 7.50208C8.75157 6.80526 9.30194 6.25016 10.0011 6.25016Z" fill="black"/>
</svg>
