<svg width="100" height="100" viewBox="0 0 100 100" fill="none" xmlns="http://www.w3.org/2000/svg">
<path d="M85.957 27.6172V87.9492C85.957 94.6094 80.5664 100 73.9062 100H26.0938C19.4336 100 14.043 94.6094 14.043 87.9492V12.0508C14.043 5.39063 19.4336 0 26.0938 0H58.3398L85.957 27.6172Z" fill="#F15642"/>
<path d="M85.957 27.6172H63.3203C60.5664 27.6172 58.3398 25.3906 58.3398 22.6367V0L85.957 27.6172Z" fill="#FF9587"/>
<path d="M42.5586 53.9063C42.5586 58.0664 40.3516 60.3711 36.4648 60.3711H34.082V67.3437H31.2305V47.5H36.4648C40.3516 47.5 42.5586 49.8633 42.5586 53.9063ZM39.6289 53.9063C39.6289 51.4648 38.5742 50.2148 36.4258 50.2148H34.082V57.6367H36.4258C38.5938 57.6563 39.6289 56.4648 39.6289 53.9063ZM44.9805 47.5H49.9023C53.75 47.5 56.0156 49.7656 56.0156 53.6719V61.0937C56.0156 65.0195 53.75 67.3242 49.9219 67.3242H44.9609V47.5H44.9805ZM49.9414 64.6094C51.9727 64.6094 53.1445 63.3984 53.1445 61.0352V53.7305C53.1445 51.4063 52.0117 50.2148 49.9414 50.2148H47.8516V64.6094H49.9414ZM62.2852 50.1953V56.1133H68.2617V58.7109H62.2852V67.3242H59.4336V47.5H68.7891V50.1953H62.2852Z" fill="white"/>
</svg>
